<svg width="112" height="185" viewBox="0 0 112 185" fill="none" xmlns="http://www.w3.org/2000/svg">
<g id="Group 1000009142">
<g id="Group 1000009140">
<g id="Group 1000009138">
<path id="Ellipse 1287" d="M66.4315 33.3374C66.3792 37.6265 64.9852 43.6641 62.5181 48.5968C61.2866 51.059 59.8142 53.1918 58.1578 54.6906C56.5078 56.1834 54.7237 57.0076 52.8235 56.9845C50.9446 56.9615 49.0713 56.0117 47.2729 54.3055C45.4779 52.6027 43.8361 50.2171 42.4457 47.5145C39.6558 42.0917 37.9946 35.6261 38.0463 31.38C38.0977 27.1701 39.8747 22.2364 42.7289 18.3726C45.4075 14.7467 48.8951 12.2385 52.5965 11.967C53.1218 13.865 54.1808 15.5908 55.4379 17.196C56.6386 18.7292 58.0735 20.2161 59.4733 21.6666C59.7465 21.9496 60.0183 22.2313 60.2868 22.5117C63.6731 26.0477 66.48 29.3577 66.4315 33.3374Z" stroke="#F96676" stroke-width="2"/>
<path id="Ellipse 1288" d="M40.1253 32.8181C43.863 34.9226 48.4908 39.0433 51.6341 43.5751C53.2031 45.8373 54.3675 48.1526 54.8874 50.3251C55.4052 52.4891 55.2719 54.4499 54.3396 56.1058C53.4177 57.7431 51.6854 58.9307 49.3254 59.6896C46.9699 60.447 44.0891 60.7424 41.0508 60.6651C34.9544 60.51 28.4848 58.8642 24.7847 56.7809C21.1159 54.7152 17.6405 50.7884 15.6207 46.4299C13.7253 42.3397 13.1988 38.0762 14.737 34.6988C16.6543 35.1488 18.6766 35.0481 20.6882 34.7157C22.6095 34.3982 24.6027 33.8529 26.547 33.3211C26.9264 33.2173 27.304 33.114 27.6789 33.013C32.4062 31.7394 36.6573 30.8655 40.1253 32.8181Z" stroke="#F96676" stroke-width="2"/>
<path id="Ellipse 1290" d="M62.2324 80.5126C59.1225 77.5584 55.6424 72.4314 53.7023 67.2688C52.7338 64.6917 52.1706 62.1619 52.1976 59.9283C52.2245 57.7034 52.833 55.8346 54.1418 54.4569C55.4359 53.0945 57.406 52.3664 59.8799 52.2075C62.3491 52.0488 65.2147 52.4665 68.142 53.2842C74.0155 54.9248 79.8865 58.1021 82.9652 61.0267C86.0177 63.9264 88.4278 68.5837 89.3209 73.3037C90.159 77.7331 89.6274 81.996 87.3103 84.895C85.5612 83.9899 83.5756 83.5932 81.5438 83.4239C79.6031 83.2621 77.5371 83.3036 75.5218 83.344C75.1285 83.3519 74.7371 83.3598 74.349 83.3661C69.4536 83.4455 65.118 83.2537 62.2324 80.5126Z" stroke="#F96676" stroke-width="2"/>
<path id="Ellipse 1292" d="M25.647 55.5866C20.0601 52.2392 15.7456 48.0641 13.267 44.0643C10.758 40.0154 10.2724 36.4152 11.7414 33.9635C13.2104 31.5117 16.614 30.2418 21.3676 30.5444C26.0636 30.8433 31.7801 32.6785 37.367 36.0259C42.9539 39.3734 47.2684 43.5485 49.747 47.5483C52.256 51.5972 52.7416 55.1974 51.2726 57.6491C49.8036 60.1008 46.4 61.3708 41.6464 61.0682C36.9504 60.7692 31.2339 58.9341 25.647 55.5866Z" stroke="#F96676" stroke-width="2"/>
<path id="Ellipse 1293" d="M33.2563 45.5916C29.5965 40.1281 27.4402 34.4366 26.8942 29.6673C26.3449 24.8693 27.4325 21.157 30.0424 19.4087C30.65 19.0017 31.2449 18.8888 31.8612 18.985C32.4962 19.084 33.1839 19.4105 33.9422 19.9413C35.2622 20.8653 36.6706 22.3138 38.254 23.9422C38.5044 24.1997 38.7592 24.4617 39.0187 24.7269C42.6888 28.4771 47.2523 32.8099 53.1892 32.5798C56.7539 37.971 58.8564 43.5677 59.3946 48.2685C59.9438 53.0665 58.8563 56.7788 56.2464 58.5271C53.6365 60.2753 49.7897 59.8685 45.5616 57.5347C41.3589 55.2149 36.9161 51.0551 33.2563 45.5916Z" stroke="#F96676"/>
<path id="Ellipse 1294" d="M72.4239 40.7718C69.5457 45.4189 65.9927 48.9809 62.6188 51.0034C59.1955 53.0556 56.2276 53.3847 54.2569 52.1641C52.2861 50.9436 51.2586 48.1398 51.5708 44.1607C51.8785 40.2392 53.4847 35.4713 56.3629 30.8243C59.2411 26.1773 62.7941 22.6153 66.1679 20.5928C69.5912 18.5406 72.5591 18.2114 74.5299 19.432C76.5006 20.6526 77.5281 23.4564 77.2159 27.4355C76.9082 31.357 75.302 36.1248 72.4239 40.7718Z" stroke="#F96676" stroke-width="2"/>
<path id="Ellipse 1299" d="M46.3031 69.0798C43.8692 71.7012 40.9381 73.3415 38.2037 73.9089C35.6646 74.4357 33.3728 74.0307 31.7302 72.7397C32.1233 68.9599 31.7469 66.4084 31.4641 64.492C31.3921 64.0036 31.3261 63.5565 31.2805 63.1408C31.1659 62.0959 31.1797 61.2852 31.4649 60.439C31.7545 59.5799 32.3565 58.5907 33.5827 57.2699C36.0166 54.6484 38.9477 53.0081 41.6821 52.4408C44.4192 51.8728 46.8689 52.3878 48.5279 53.9281C50.1868 55.4683 50.882 57.8731 50.5185 60.6447C50.1554 63.4136 48.7369 66.4583 46.3031 69.0798Z" stroke="#F96676" stroke-width="2"/>
<path id="Ellipse 1300" d="M79.2643 47.9107C77.7143 49.4643 75.5195 51.6642 72.8808 55.0675C69.6561 56.3519 66.4053 56.5952 63.7497 55.9883C61.2218 55.4105 59.3065 54.0883 58.3503 52.2308C60.281 48.9576 61.0007 46.4809 61.5413 44.6207C61.6791 44.1466 61.8052 43.7126 61.9368 43.3156C62.2674 42.3179 62.6174 41.5865 63.229 40.9358C63.8499 40.2751 64.809 39.6263 66.4737 38.9357C69.7778 37.5651 73.1257 37.2937 75.8482 37.916C78.5733 38.5388 80.5863 40.0267 81.4537 42.1177C81.9361 43.2808 82.018 43.9615 81.9168 44.4836C81.8144 45.0123 81.492 45.5549 80.749 46.38C80.356 46.8164 79.8573 47.3163 79.2643 47.9107Z" stroke="#F96676" stroke-width="2"/>
<path id="Ellipse 1301" d="M46.4067 40.8224C46.6931 37.2568 47.9777 34.1532 49.7726 32.0137C51.4392 30.0271 53.4891 28.9252 55.5783 28.9208C57.6115 32.1314 59.4878 33.901 60.897 35.2301C61.2562 35.5688 61.585 35.879 61.8783 36.177C62.6156 36.9262 63.1071 37.5711 63.4074 38.412C63.7124 39.2659 63.8527 40.4153 63.7085 42.2118C63.4221 45.7774 62.1375 48.8809 60.3427 51.0204C58.546 53.1619 56.3041 54.2754 54.0476 54.0942C51.7912 53.913 49.7556 52.456 48.3238 50.0552C46.8933 47.6567 46.1204 44.388 46.4067 40.8224Z" stroke="#F96676" stroke-width="2"/>
<path id="Ellipse 1307" d="M59.7113 64.4812C56.4261 62.0477 54.0167 59.1238 52.7638 56.3854C51.5026 53.6287 51.4569 51.1776 52.6636 49.5484C53.8704 47.9193 56.2284 47.2488 59.2331 47.6519C62.2177 48.0524 65.7169 49.5052 69.0021 51.9387C72.2873 54.3722 74.6968 57.2961 75.9496 60.0345C77.2108 62.7913 77.2565 65.2424 76.0498 66.8715C74.843 68.5006 72.485 69.1712 69.4803 68.768C66.4957 68.3675 62.9966 66.9147 59.7113 64.4812Z" stroke="#FC98BD"/>
<path id="Ellipse 1302" d="M34.5163 57.2671C31.1971 55.9335 28.6159 53.7842 27.1069 51.4343C25.7057 49.2523 25.2631 46.9675 25.8802 44.9715C29.5501 43.9849 31.7976 42.7197 33.4856 41.7694C33.9158 41.5272 34.3097 41.3055 34.6815 41.114C35.6159 40.6329 36.3778 40.3554 37.2701 40.3186C38.1759 40.2814 39.3151 40.4891 40.9874 41.1611C44.3066 42.4947 46.8878 44.644 48.3968 46.9939C49.9073 49.346 50.3037 51.8177 49.4598 53.9182C48.6158 56.0187 46.6195 57.5289 43.9015 58.1822C41.1862 58.8347 37.8355 58.6007 34.5163 57.2671Z" stroke="#F96676" stroke-width="2"/>
<path id="Ellipse 1308" d="M52.712 30.0435C54.1789 33.8596 54.6437 37.6197 54.2319 40.6028C53.8173 43.6059 52.5409 45.6989 50.6485 46.4264C48.7562 47.1538 46.4064 46.4546 44.0871 44.5025C41.7831 42.5633 39.6096 39.46 38.1427 35.6439C36.6758 31.8278 36.211 28.0676 36.6228 25.0846C37.0374 22.0815 38.3138 19.9884 40.2062 19.261C42.0986 18.5336 44.4483 19.2327 46.7677 21.1849C49.0716 23.1241 51.2451 26.2274 52.712 30.0435Z" stroke="#FC98BD"/>
<path id="Ellipse 1306" d="M32.162 56.2451C28.1444 55.4882 24.7008 53.9081 22.379 51.9904C20.0416 50.0599 18.9313 47.8741 19.3066 45.8818C19.682 43.8895 21.5114 42.2575 24.391 41.3097C27.2514 40.3682 31.0338 40.1493 35.0515 40.9062C39.0692 41.663 42.5127 43.2431 44.8345 45.1608C47.1719 47.0914 48.2822 49.2771 47.9069 51.2694C47.5316 53.2618 45.7021 54.8937 42.8226 55.8415C39.9621 56.783 36.1797 57.0019 32.162 56.2451Z" stroke="#FC98BD"/>
<path id="Ellipse 1303" d="M72.0588 56.4169C74.85 58.654 76.6987 61.4584 77.4631 64.1444C78.1728 66.6386 77.9352 68.9537 76.7669 70.6857C72.9685 70.568 70.451 71.1286 68.5602 71.5497C68.0783 71.657 67.6372 71.7553 67.2259 71.8309C66.1921 72.021 65.3825 72.0662 64.5178 71.8431C63.6399 71.6166 62.6097 71.088 61.2034 69.9609C58.4122 67.7237 56.5635 64.9194 55.7991 62.2333C55.034 59.5447 55.3699 57.0641 56.7856 55.2977C58.2013 53.5314 60.5493 52.6635 63.34 52.8248C66.128 52.986 69.2676 54.1798 72.0588 56.4169Z" stroke="#F96676" stroke-width="2"/>
<path id="Ellipse 1296" d="M57.4994 78.5628C56.5643 80.9962 55.7615 83.2907 55.0336 85.3713C54.8296 85.9545 54.6314 86.5209 54.4379 87.0688C53.5472 89.5903 52.7608 91.7013 51.9367 93.3408C51.1036 94.9984 50.3015 96.0271 49.4567 96.5374C48.6871 97.0023 47.7441 97.1172 46.363 96.5865C43.6951 95.5614 41.8584 92.4271 41.3384 87.6923C40.8248 83.0149 41.6488 77.0679 43.9849 70.9883C44.9199 68.5548 45.7227 66.2603 46.4506 64.1797C46.6547 63.5965 46.8528 63.0302 47.0464 62.4823C47.9371 59.9608 48.7235 57.8498 49.5475 56.2102C50.3807 54.5526 51.1828 53.5239 52.0275 53.0136C52.7971 52.5487 53.7401 52.4338 55.1212 52.9645C57.7891 53.9897 59.6259 57.1239 60.1458 61.8587C60.6595 66.5361 59.8355 72.4831 57.4994 78.5628Z" stroke="#F96676" stroke-width="2"/>
<path id="Ellipse 1297" d="M45.5821 70.2384C41.0957 74.9598 36.0794 78.2587 31.6349 79.8043C27.136 81.3688 23.5166 81.0566 21.4447 79.0878C19.3728 77.119 18.8766 73.5203 20.2097 68.9474C21.5266 64.4299 24.5655 59.252 29.0519 54.5306C33.5384 49.8093 38.5546 46.5104 42.9991 44.9648C47.4981 43.4003 51.1175 43.7124 53.1893 45.6812C55.2612 47.65 55.7575 51.2488 54.4244 55.8217C53.1074 60.3391 50.0686 65.5171 45.5821 70.2384Z" stroke="#F96676" stroke-width="2"/>
<path id="Ellipse 1298" d="M69.9761 74.6526C64.3892 71.3051 60.0747 67.13 57.5961 63.1302C55.0871 59.0813 54.6015 55.4811 56.0705 53.0294C57.5395 50.5777 60.9431 49.3077 65.6967 49.6103C70.3927 49.9092 76.1092 51.7444 81.6961 55.0918C87.283 58.4393 91.5975 62.6144 94.0761 66.6142C96.5851 70.6631 97.0707 74.2633 95.6017 76.715C94.1327 79.1667 90.7291 80.4367 85.9755 80.1341C81.2795 79.8352 75.563 78 69.9761 74.6526Z" stroke="#F96676" stroke-width="2"/>
<path id="Ellipse 1291" d="M26.4882 60.0057C29.8382 57.3268 35.3911 54.5769 40.7698 53.3575C43.4547 52.7488 46.0376 52.5352 48.2468 52.866C50.4473 53.1954 52.2159 54.0526 53.4027 55.5367C54.5762 57.0043 55.0293 59.0552 54.8501 61.5277C54.6713 63.9954 53.8674 66.7775 52.6589 69.5663C50.234 75.1619 46.2872 80.5457 42.9708 83.1977C39.6826 85.8271 34.7406 87.5809 29.943 87.8233C25.4408 88.0507 21.2899 86.9438 18.7333 84.2536C19.868 82.644 20.5312 80.7309 20.9756 78.741C21.4 76.8405 21.6401 74.788 21.8743 72.786C21.92 72.3953 21.9655 72.0064 22.0121 71.621C22.5997 66.7605 23.3798 62.4913 26.4882 60.0057Z" stroke="#F96676" stroke-width="2"/>
<path id="Ellipse 1304" d="M58.197 70.2464C57.8799 74.3224 56.6821 77.9169 55.0273 80.4328C53.3613 82.9656 51.3087 84.3061 49.2875 84.1489C47.2662 83.9917 45.4457 82.3498 44.1915 79.5899C42.9456 76.8483 42.3182 73.1118 42.6353 69.0358C42.9524 64.9598 44.1501 61.3653 45.805 58.8494C47.4709 56.3166 49.5235 54.9761 51.5448 55.1333C53.566 55.2906 55.3866 56.9324 56.6408 59.6924C57.8866 62.4339 58.514 66.1704 58.197 70.2464Z" stroke="#FC98BD"/>
<path id="Ellipse 1289" d="M80.264 58.1393C76.386 59.9722 70.3482 61.3656 64.8332 61.3101C62.0803 61.2824 59.5179 60.8938 57.4448 60.0619C55.3798 59.2332 53.857 57.9908 53.045 56.2728C52.242 54.5739 52.2747 52.4738 53.02 50.1095C53.7638 47.7497 55.1884 45.2285 57.0081 42.7941C60.6595 37.9096 65.7428 33.5826 69.5819 31.7681C73.3885 29.969 78.6019 29.4037 83.3258 30.2757C87.7588 31.094 91.5419 33.1294 93.4083 36.3372C91.9326 37.6414 90.8456 39.3496 89.9537 41.1831C89.1019 42.9343 88.3944 44.8758 87.7042 46.7697C87.5695 47.1393 87.4355 47.5071 87.3012 47.8713C85.6072 52.4649 83.8623 56.4386 80.264 58.1393Z" stroke="#F96676" stroke-width="2"/>
<path id="Ellipse 1305" d="M72.3209 49.8701C68.7107 51.7886 65.0346 52.7056 62.0235 52.6583C58.9924 52.6106 56.7601 51.5972 55.8087 49.8069C54.8573 48.0166 55.2666 45.5995 56.9234 43.0607C58.5691 40.5388 61.3861 38.0052 64.9964 36.0867C68.6066 34.1682 72.2828 33.2513 75.2938 33.2986C78.3249 33.3462 80.5572 34.3596 81.5086 36.1499C82.46 37.9402 82.0507 40.3573 80.394 42.8961C78.7482 45.4181 75.9312 47.9516 72.3209 49.8701Z" stroke="#FC98BD"/>
</g>
<rect id="Rectangle 3510" x="54.6904" y="83.8657" width="4.15217" height="100.69" fill="#81AB3D"/>
<g id="Group 1000009139">
<path id="Ellipse 1287_2" d="M34.9973 40.4626C39.2662 40.849 45.163 42.7782 49.8632 45.7506C54.6293 48.7645 57.7739 52.5854 57.3786 56.6449C57.183 58.6532 56.0477 60.5648 54.1811 62.3232C52.3161 64.08 49.7852 65.6202 46.9635 66.8707C41.299 69.3812 34.7006 70.6229 30.4766 70.2406C26.2912 69.8618 21.5312 67.6184 17.9295 64.3197C14.5388 61.2142 12.3217 57.3168 12.4082 53.3455C14.3643 52.9417 16.191 51.9582 17.9101 50.7597C19.5482 49.6175 21.161 48.226 22.7352 46.8679C23.0425 46.6027 23.3483 46.3389 23.6526 46.0784C25.5435 44.4594 27.3885 42.9568 29.2855 41.9023C31.1704 40.8545 33.0435 40.2858 34.9973 40.4626Z" stroke="#F96676" stroke-width="2"/>
<path id="Ellipse 1288_2" d="M32.0962 68.107C34.5408 64.3325 39.0803 59.7824 43.8954 56.8267C46.2998 55.3507 48.7217 54.3044 50.9424 53.9257C53.1556 53.5483 55.0984 53.8425 56.6611 54.9456C58.2063 56.0362 59.2371 57.9443 59.7837 60.4888C60.3288 63.0264 60.3643 66.081 60.0131 69.2717C59.3085 75.671 57.0803 82.3528 54.6583 86.0923C52.255 89.8029 48.0084 93.1576 43.4676 94.9447C39.2018 96.6237 34.8978 96.842 31.6711 94.969C32.2962 92.9952 32.3798 90.863 32.2285 88.7163C32.0846 86.6753 31.72 84.5411 31.3641 82.4573C31.2946 82.0504 31.2254 81.6455 31.1583 81.2436C30.3139 76.1884 29.8156 71.6282 32.0962 68.107Z" stroke="#F96676" stroke-width="2"/>
<path id="Ellipse 1290_2" d="M81.7313 48.5995C78.4964 51.6428 73.0584 54.9049 67.7238 56.545C65.0606 57.3637 62.4798 57.7603 60.2474 57.5585C58.0233 57.3575 56.2083 56.5716 54.9481 55.0871C53.7018 53.6189 53.1511 51.4881 53.2153 48.8719C53.2792 46.2612 53.9554 43.2792 55.0364 40.2645C57.2048 34.2167 60.909 28.2881 64.1129 25.274C67.2908 22.2842 72.1664 20.1102 76.9652 19.5368C81.476 18.9979 85.696 19.8912 88.3851 22.5622C87.32 24.3276 86.7431 26.385 86.3899 28.5132C86.0539 30.5377 85.9094 32.7096 85.7684 34.8299C85.7408 35.2439 85.7134 35.6559 85.6847 36.0644C85.3236 41.2089 84.7427 45.7666 81.7313 48.5995Z" stroke="#F96676" stroke-width="2"/>
<path id="Ellipse 1299_2" d="M68.8917 64.4077C71.2909 67.1688 72.6664 70.3778 72.9872 73.2993C73.2861 76.021 72.6699 78.4178 71.2107 80.0566C67.4659 79.3474 64.8829 79.5453 62.941 79.6941C62.4465 79.732 61.9935 79.7668 61.5735 79.7825C60.5175 79.822 59.7055 79.7446 58.8829 79.3779C58.0486 79.0059 57.1139 78.2955 55.9052 76.9045C53.506 74.1434 52.1304 70.9344 51.8096 68.0129C51.4886 65.0894 52.2232 62.5409 53.9244 60.9039C55.6255 59.2669 58.1032 58.7243 60.8415 59.3216C63.578 59.9185 66.4924 61.6466 68.8917 64.4077Z" stroke="#F96676" stroke-width="2"/>
<path id="Ellipse 1300_2" d="M50.7004 28.1389C52.1137 29.8898 54.1113 32.3644 57.2759 35.4027C58.2773 38.9101 58.2287 42.3652 57.3788 45.1237C56.5711 47.7451 55.0762 49.652 53.1437 50.511C50.0507 48.2292 47.6448 47.2819 45.8351 46.5695C45.3737 46.3878 44.9511 46.2214 44.5657 46.0521C43.5991 45.6273 42.894 45.2005 42.2922 44.4992C41.6806 43.7865 41.1151 42.7185 40.5738 40.9101C39.4986 37.3186 39.5292 33.7661 40.399 30.9432C41.2703 28.1153 42.9413 26.119 45.0987 25.3726C46.3007 24.9568 46.9853 24.9235 47.4978 25.0703C48.0219 25.2204 48.5405 25.6063 49.3009 26.4548C49.7036 26.904 50.1591 27.4684 50.7004 28.1389Z" stroke="#F96676" stroke-width="2"/>
<path id="Ellipse 1301_2" d="M40.6541 62.1876C37.1312 61.6125 34.1544 60.0274 32.1806 57.9768C30.3362 56.0606 29.4025 53.7853 29.6077 51.5356C33.0104 49.6444 34.9498 47.8069 36.4073 46.4259C36.7781 46.0746 37.1177 45.7529 37.4422 45.4673C38.2604 44.7474 38.95 44.2811 39.8138 44.0315C40.6877 43.779 41.841 43.7203 43.6168 44.0102C47.1397 44.5853 50.1165 46.1703 52.0903 48.2209C54.0639 50.2713 54.9947 52.733 54.6033 55.1343C54.2119 57.5357 52.5477 59.5736 50.0254 60.8901C47.5028 62.2066 44.177 62.7627 40.6541 62.1876Z" stroke="#F96676" stroke-width="2"/>
<path id="Ellipse 1302_2" d="M56.0166 75.903C54.3783 79.3032 51.9881 81.8609 49.4948 83.2706C47.1815 84.5784 44.8666 84.8609 42.9438 84.0692C42.2902 80.1407 41.2307 77.6847 40.4337 75.8371C40.2304 75.3658 40.0442 74.9342 39.8861 74.5278C39.49 73.5092 39.2782 72.68 39.3225 71.7263C39.3676 70.7566 39.6826 69.5633 40.5074 67.8514C42.1458 64.4511 44.5359 61.8934 47.0292 60.4838C49.5279 59.0711 52.0286 58.8547 54.0347 59.8962C56.0409 60.9377 57.3741 63.1444 57.7839 66.0671C58.1928 68.9834 57.655 72.5027 56.0166 75.903Z" stroke="#F96676" stroke-width="2"/>
<path id="Ellipse 1303_2" d="M58.5292 36.3796C61.0217 33.6122 63.9975 31.8816 66.7572 31.2847C69.3222 30.7299 71.6168 31.1625 73.2409 32.5254C72.7801 36.5078 73.113 39.1948 73.3634 41.2156C73.4272 41.7307 73.4857 42.2025 73.5242 42.6414C73.6211 43.743 73.5939 44.6032 73.2903 45.5032C72.982 46.4174 72.3562 47.4655 71.101 48.8592C68.6086 51.6266 65.6327 53.3572 62.8731 53.9541C60.1094 54.5519 57.6596 54.0034 56.0242 52.38C54.3888 50.7566 53.7302 48.2194 54.1441 45.2891C54.5574 42.363 56.0368 39.1469 58.5292 36.3796Z" stroke="#F96676" stroke-width="2"/>
<path id="Ellipse 1291_2" d="M58.0013 84.5618C55.6253 80.8303 53.378 74.7786 52.6442 69.0288C52.2779 66.1584 52.297 63.4243 52.8272 61.1243C53.3554 58.8329 54.3734 57.0351 55.9681 55.899C57.5454 54.7752 59.6407 54.4579 62.0974 54.8383C64.5492 55.218 67.2578 56.2796 69.9353 57.7662C75.3071 60.7489 80.3318 65.3156 82.6847 69.011C85.0183 72.676 86.3256 78.011 86.1354 83.0755C85.9565 87.8369 84.4708 92.1278 81.5368 94.6094C80.0332 93.2879 78.1804 92.4403 76.2277 91.8174C74.3698 91.2248 72.3439 90.8139 70.366 90.4128C69.9799 90.3345 69.5956 90.2565 69.2148 90.1777C64.4173 89.1845 60.2115 88.033 58.0013 84.5618Z" stroke="#F96676" stroke-width="2"/>
<path id="Ellipse 1289_2" d="M61.0152 27.9001C62.4998 32.1267 63.3481 38.5878 62.7954 44.3852C62.5194 47.28 61.8995 49.9473 60.8801 52.0653C59.8642 54.176 58.4855 55.678 56.7011 56.3963C54.9366 57.1067 52.8429 56.9117 50.5442 55.9434C48.2511 54.9775 45.8583 53.2828 43.5887 51.1797C39.0364 46.9615 35.1666 41.2778 33.6959 37.0908C32.2368 32.9366 32.1432 27.4023 33.4411 22.4997C34.6606 17.8933 37.0385 14.0754 40.4078 12.3657C41.5718 14.0177 43.1789 15.2941 44.9352 16.3768C46.6054 17.4063 48.4785 18.2992 50.3073 19.171C50.6643 19.3412 51.0197 19.5106 51.3715 19.68C55.7981 21.812 59.6312 23.9597 61.0152 27.9001Z" stroke="#F96676" stroke-width="2"/>
</g>
</g>
<path id="Ellipse 1309" d="M62.4685 56.0391C62.4131 60.6252 58.6505 64.2979 54.0644 64.2425C49.4784 64.1871 45.8056 60.4244 45.8611 55.8384C45.9165 51.2524 49.6791 47.5796 54.2652 47.635C58.8512 47.6905 62.524 51.4531 62.4685 56.0391Z" fill="#F96676"/>
<g id="Group 1000009141">
<path id="Ellipse 1310" d="M47.3841 123.502C53.0552 129.434 52.3188 139.809 45.1298 146.681C37.9407 153.554 27.5434 153.823 21.8722 147.89C19.0292 144.916 17.2905 139.64 16.5539 133.581C15.876 128.005 16.0775 122.024 16.8741 117.143C22.0676 116.596 28.0782 116.662 33.5616 117.581C39.4925 118.576 44.5367 120.523 47.3841 123.502Z" stroke="#81AB3D" stroke-width="3"/>
<path id="Ellipse 1311" d="M92.0079 148.793C86.4384 154.821 76.038 154.729 68.7332 147.98C61.4283 141.23 60.5157 130.87 66.0852 124.842C68.8772 121.82 74.036 119.758 80.0377 118.647C85.5609 117.625 91.5433 117.455 96.4634 117.948C97.332 123.098 97.6382 129.101 97.0603 134.631C96.4353 140.612 94.8042 145.767 92.0079 148.793Z" stroke="#81AB3D" stroke-width="3"/>
</g>
</g>
</svg>
